<svg width="35" height="34" viewBox="0 0 35 34" fill="none" xmlns="http://www.w3.org/2000/svg">
<path d="M27.5 15.5157C27.4864 14.5221 27.2681 13.5419 26.8588 12.6364C26.4495 11.7308 25.858 10.9193 25.1211 10.2526C25.3632 10.1789 25.7316 6.04206 25.7316 6.04206C25.741 5.92766 25.718 5.81293 25.6652 5.71102C25.6123 5.60911 25.5318 5.52416 25.4329 5.46591C25.334 5.40767 25.2207 5.37848 25.106 5.38171C24.9912 5.38494 24.8797 5.42045 24.7842 5.48417L21.5527 8.09469C20.2532 7.62295 18.8825 7.37729 17.5 7.36838C16.0233 7.36488 14.5591 7.63986 13.1842 8.1789L9.9737 5.96838C9.87671 5.90814 9.76498 5.8758 9.65081 5.87493C9.53663 5.87405 9.42442 5.90467 9.32652 5.96341C9.22861 6.02216 9.14879 6.10676 9.09583 6.20791C9.04287 6.30907 9.01883 6.42287 9.02634 6.5368C9.09956 7.91616 9.25068 9.29028 9.47897 10.6526C8.21765 11.96 7.50238 13.6992 7.47897 15.5157C7.47897 19.2842 10.6369 22.4421 14.9421 23.3579C14.6008 23.5621 14.3172 23.8501 14.1182 24.1945C13.9193 24.539 13.8116 24.9285 13.8053 25.3263C13.3834 25.5732 12.91 25.7189 12.4223 25.7517C11.9346 25.7846 11.4459 25.7038 10.9948 25.5157C10.5 25.2526 10.5316 24.9894 9.42634 23.8C8.32107 22.6105 7.86844 22.3789 7.52107 22.2842C6.85792 22.0842 6.04739 22.1789 5.95265 22.4736C5.85791 22.7684 6.81581 23.1579 7.86844 24.2105C9.3737 25.621 9.23686 26.4842 10.279 27.1684C10.813 27.468 11.4051 27.6494 12.0153 27.7003C12.6256 27.7511 13.2396 27.6702 13.8158 27.4631V31.2421H21.1842V25.4105C21.1915 24.9975 21.0891 24.5899 20.8875 24.2293C20.686 23.8688 20.3925 23.5681 20.0369 23.3579C24.3316 22.4421 27.5 19.2842 27.5 15.5157Z" stroke="black" stroke-linecap="round" stroke-linejoin="round"/>
</svg>
