<svg width="35" height="34" viewBox="0 0 35 34" fill="none" xmlns="http://www.w3.org/2000/svg">
<path d="M7.5 10.158C9.24405 10.158 10.6579 8.74412 10.6579 7.00006C10.6579 5.256 9.24405 3.84216 7.5 3.84216C5.75594 3.84216 4.3421 5.256 4.3421 7.00006C4.3421 8.74412 5.75594 10.158 7.5 10.158Z" stroke="black" stroke-linecap="round" stroke-linejoin="round"/>
<path d="M7.5 12.2632C8.33752 12.2632 9.14075 12.5959 9.73297 13.1881C10.3252 13.7803 10.6579 14.5836 10.6579 15.4211V30.1579H4.3421V15.4211C4.3421 14.5836 4.67481 13.7803 5.26703 13.1881C5.85925 12.5959 6.66247 12.2632 7.5 12.2632Z" stroke="black" stroke-linecap="round" stroke-linejoin="round"/>
<path d="M12.7632 21.2106V30.1579H19.079V22.2632C19.079 21.5652 19.3562 20.8959 19.8497 20.4024C20.3433 19.9089 21.0126 19.6316 21.7106 19.6316C22.4085 19.6316 23.0778 19.9089 23.5714 20.4024C24.0649 20.8959 24.3421 21.5652 24.3421 22.2632V30.1579H30.6579V21.2106C30.6551 18.8384 29.7116 16.5642 28.0342 14.8869C26.3569 13.2095 24.0827 12.266 21.7106 12.2632C19.3384 12.266 17.0642 13.2095 15.3869 14.8869C13.7095 16.5642 12.766 18.8384 12.7632 21.2106Z" stroke="black" stroke-linecap="round" stroke-linejoin="round"/>
</svg>
